<svg xmlns="http://www.w3.org/2000/svg" viewBox="0 0 100 100" width="64" height="64">
  <defs>
    <linearGradient id="grad" x1="0%" y1="0%" x2="100%" y2="100%">
      <stop offset="0%" style="stop-color:#8B5CF6"/>
      <stop offset="100%" style="stop-color:#EC4899"/>
    </linearGradient>
  </defs>
  
  <!-- Sun -->
  <circle cx="35" cy="35" r="12" fill="#FBBF24"/>
  <line x1="35" y1="15" x2="35" y2="20" stroke="#FBBF24" stroke-width="3" stroke-linecap="round"/>
  <line x1="35" y1="50" x2="35" y2="55" stroke="#FBBF24" stroke-width="3" stroke-linecap="round"/>
  <line x1="15" y1="35" x2="20" y2="35" stroke="#FBBF24" stroke-width="3" stroke-linecap="round"/>
  <line x1="50" y1="35" x2="55" y2="35" stroke="#FBBF24" stroke-width="3" stroke-linecap="round"/>
  <line x1="22" y1="22" x2="25" y2="25" stroke="#FBBF24" stroke-width="3" stroke-linecap="round"/>
  <line x1="48" y1="22" x2="45" y2="25" stroke="#FBBF24" stroke-width="3" stroke-linecap="round"/>
  <line x1="22" y1="48" x2="25" y2="45" stroke="#FBBF24" stroke-width="3" stroke-linecap="round"/>
  <line x1="48" y1="48" x2="45" y2="45" stroke="#FBBF24" stroke-width="3" stroke-linecap="round"/>
  
  <!-- Cloud -->
  <path d="M55 50 Q55 40 65 40 Q75 40 75 50 Q85 50 85 60 Q85 70 75 70 L55 70 Q45 70 45 60 Q45 50 55 50Z" fill="url(#grad)"/>
  
  <!-- Rain drops -->
  <line x1="58" y1="72" x2="55" y2="82" stroke="#60A5FA" stroke-width="2" stroke-linecap="round"/>
  <line x1="68" y1="72" x2="65" y2="82" stroke="#60A5FA" stroke-width="2" stroke-linecap="round"/>
  <line x1="78" y1="72" x2="75" y2="82" stroke="#60A5FA" stroke-width="2" stroke-linecap="round"/>
</svg>
